<?xml version="1.0" standalone="no"?>
<!DOCTYPE svg PUBLIC "-//W3C//DTD SVG 20010904//EN"
 "http://www.w3.org/TR/2001/REC-SVG-20010904/DTD/svg10.dtd">
<svg version="1.0" xmlns="http://www.w3.org/2000/svg"
 width="700.000000pt" height="700.000000pt" viewBox="0 0 700.000000 700.000000"
 preserveAspectRatio="xMidYMid meet">
<metadata>
Created by potrace 1.14, written by Peter Selinger 2001-2017
</metadata>
<g transform="translate(0.000000,700.000000) scale(0.100000,-0.100000)"
fill="#000000" stroke="none">
<path d="M987 6182 c-16 -3 -17 -93 -17 -1278 l0 -1274 312 2 312 3 0 918 c0
504 3 917 6 917 5 0 87 -190 440 -1017 l142 -332 209 2 210 2 219 514 c121
282 226 527 234 545 8 17 39 92 71 166 31 74 58 136 59 138 2 1 3 -406 4 -905
0 -500 1 -918 1 -930 l1 -23 310 0 310 0 0 1275 0 1275 -22 1 c-27 1 -752 0
-789 0 -29 -1 -16 27 -189 -381 -62 -146 -122 -287 -134 -315 -13 -27 -81
-186 -152 -352 -71 -167 -132 -303 -135 -303 -3 0 -46 93 -94 208 -124 291
-294 689 -314 737 -10 22 -51 119 -91 215 -41 96 -77 179 -81 184 -7 7 -784
15 -822 8z"/>
<path d="M2694 3143 c4 -16 8 -37 10 -48 3 -11 20 -85 40 -165 19 -80 47 -194
61 -255 15 -60 28 -118 31 -127 8 -34 12 -53 24 -103 6 -27 34 -144 61 -260
64 -266 95 -398 120 -505 11 -47 32 -132 45 -189 14 -57 27 -111 29 -120 6
-27 60 -256 100 -421 43 -179 37 -154 59 -253 l18 -77 381 2 381 3 16 70 c35
145 74 310 76 322 2 12 29 123 41 173 3 14 8 32 9 40 2 8 24 101 49 205 25
105 54 228 65 275 10 47 33 142 49 213 80 330 90 375 95 398 3 13 10 44 17 69
6 25 12 52 14 61 2 9 8 33 13 52 6 20 7 39 4 43 -4 4 -2 4 4 1 7 -4 15 -24 19
-44 3 -21 24 -110 46 -197 22 -88 41 -169 43 -180 3 -16 106 -444 120 -501 2
-5 7 -28 11 -50 10 -44 9 -40 18 -75 4 -14 18 -74 33 -135 14 -60 41 -175 60
-255 19 -80 48 -201 65 -270 16 -69 35 -146 41 -173 l12 -47 380 2 380 3 12
50 c22 91 84 360 88 380 4 18 32 136 42 175 8 35 61 255 68 288 2 9 16 67 30
127 15 61 28 119 30 130 3 11 16 70 31 130 14 61 37 157 51 215 14 58 31 132
40 165 8 33 16 70 19 83 3 12 7 30 9 40 2 9 14 58 25 109 19 84 78 333 102
428 5 22 12 51 15 65 3 14 12 50 20 81 7 31 14 62 14 68 0 8 -87 11 -311 9
l-311 -3 -29 -120 c-16 -66 -44 -185 -64 -265 -151 -631 -165 -693 -171 -724
-3 -16 -7 -32 -9 -36 -2 -3 -6 -17 -9 -31 -8 -40 -136 -581 -148 -624 l-11
-40 -17 70 c-30 121 -118 492 -165 695 -25 107 -52 222 -61 255 -8 33 -16 69
-18 80 -8 35 -167 709 -172 728 -5 16 -29 17 -322 17 l-318 0 -28 -122 c-15
-68 -43 -186 -61 -263 -39 -161 -136 -573 -140 -595 -2 -8 -12 -53 -24 -100
-41 -172 -83 -345 -86 -360 -2 -8 -9 -37 -15 -65 -6 -27 -13 -57 -15 -65 -2
-8 -13 -55 -25 -105 -12 -49 -24 -101 -26 -115 -12 -65 -18 -59 -40 38 -8 37
-102 432 -114 482 -7 25 -13 52 -15 60 -3 13 -87 370 -160 675 -22 90 -41 174
-50 215 -2 8 -13 53 -25 100 -12 47 -24 94 -26 105 -2 11 -9 41 -15 68 l-11
47 -315 0 -315 0 6 -27z"/>
</g>
</svg>
